<?xml version="1.0" encoding="UTF-8"?>
<svg id="Layer_2" data-name="Layer 2" xmlns="http://www.w3.org/2000/svg" viewBox="0 0 1357 1357">
  <defs>
    <style>
      .cls-1, .cls-2 {
        stroke-width: 0px;
      }

      .cls-3 {
        isolation: isolate;
      }

      .cls-2 {
        fill: #fff;
      }
    </style>
  </defs>
  <g id="Layer_1-2" data-name="Layer 1">
    <g>
      <rect class="cls-2" width="1357" height="1357" rx="264.9" ry="264.9"/>
      <g id="højkant." class="cls-3">
        <g class="cls-3">
          <path class="cls-1" d="m254.93,616.06c10.36,11.35,15.54,26.93,15.54,46.77v87.37h-45.56v-81.2c0-10-2.59-17.78-7.77-23.32-5.18-5.54-12.15-8.31-20.9-8.31s-15.72,2.77-20.9,8.31c-5.18,5.54-7.77,13.31-7.77,23.32v81.2h-45.83v-198.32h45.83v68.88c4.64-6.61,10.99-11.88,19.03-15.81,8.04-3.93,17.06-5.9,27.07-5.9,17.15,0,30.91,5.67,41.27,17.02Z"/>
          <path class="cls-1" d="m429.67,623.69c11.97,13.94,17.96,31.18,17.96,51.72,0,15.37-3.44,28.9-10.32,40.6-6.88,11.7-16.26,20.68-28.14,26.93-11.88,6.26-25.15,9.38-39.8,9.38-17.33,0-32.52-4.29-45.56-12.86l-9.92,10.72h-24.66l20.9-22.78c-11.97-13.94-17.96-31.26-17.96-51.99,0-15.36,3.39-28.9,10.18-40.6,6.79-11.7,16.08-20.68,27.87-26.93,11.79-6.25,25.01-9.38,39.66-9.38,17.69,0,33.05,4.38,46.1,13.13l10.18-10.99h24.66l-21.17,23.05Zm-87.9,69.14l45.29-49.31c-4.82-3.57-10.54-5.36-17.15-5.36-8.94,0-16.35,3.17-22.24,9.51-5.9,6.34-8.84,15.59-8.84,27.74,0,6.61.98,12.42,2.95,17.42Zm56.28-34.57l-45.29,49.58c4.82,3.22,10.36,4.82,16.62,4.82,8.75,0,16.21-3.22,22.38-9.65s9.25-15.63,9.25-27.6c0-6.43-.98-12.15-2.95-17.15Z"/>
          <path class="cls-1" d="m516.77,769.49c0,18.4-4.65,31.67-13.94,39.8-9.29,8.13-22.24,12.19-38.86,12.19h-17.96v-38.86h10.99c5,0,8.58-.98,10.72-2.95,2.14-1.97,3.22-5.18,3.22-9.65v-169.38h45.83v168.84Zm-42.75-191.49c-5.09-4.73-7.64-10.59-7.64-17.55s2.55-13.09,7.64-17.82c5.09-4.73,11.66-7.1,19.7-7.1s14.34,2.37,19.43,7.1c5.09,4.74,7.64,10.68,7.64,17.82s-2.55,12.82-7.64,17.55c-5.09,4.74-11.57,7.1-19.43,7.1s-14.61-2.37-19.7-7.1Z"/>
          <path class="cls-1" d="m641.12,750.19l-45.56-62.71v62.71h-45.83v-198.32h45.83v109.61l45.29-60.84h56.55l-62.18,75.04,62.71,74.5h-56.82Z"/>
          <path class="cls-1" d="m714.95,634.68c5.8-11.61,13.71-20.54,23.72-26.8,10-6.25,21.17-9.38,33.5-9.38,10.54,0,19.79,2.14,27.74,6.43,7.95,4.29,14.07,9.92,18.36,16.88v-21.17h45.83v149.54h-45.83v-21.17c-4.47,6.97-10.68,12.6-18.62,16.88-7.95,4.29-17.2,6.43-27.74,6.43-12.15,0-23.23-3.17-33.23-9.51-10.01-6.34-17.91-15.36-23.72-27.07-5.81-11.7-8.71-25.23-8.71-40.6s2.9-28.85,8.71-40.47Zm93.8,13.67c-6.34-6.61-14.07-9.92-23.18-9.92s-16.84,3.26-23.18,9.78c-6.34,6.52-9.51,15.5-9.51,26.93s3.17,20.5,9.51,27.2c6.34,6.7,14.07,10.05,23.18,10.05s16.84-3.3,23.18-9.92c6.34-6.61,9.51-15.63,9.51-27.07s-3.17-20.46-9.51-27.07Z"/>
          <path class="cls-1" d="m1030.38,616.06c10.45,11.35,15.68,26.93,15.68,46.77v87.37h-45.56v-81.2c0-10-2.59-17.78-7.77-23.32-5.18-5.54-12.15-8.31-20.9-8.31s-15.72,2.77-20.9,8.31c-5.18,5.54-7.77,13.31-7.77,23.32v81.2h-45.83v-149.54h45.83v19.83c4.64-6.61,10.9-11.83,18.76-15.68,7.86-3.84,16.7-5.76,26.53-5.76,17.51,0,31.49,5.67,41.94,17.02Z"/>
          <path class="cls-1" d="m1161.3,711.33v38.86h-23.32c-16.62,0-29.57-4.06-38.86-12.19-9.29-8.13-13.94-21.39-13.94-39.8v-59.5h-18.22v-38.06h18.22v-36.45h45.83v36.45h30.02v38.06h-30.02v60.03c0,4.47,1.07,7.68,3.22,9.65,2.14,1.97,5.72,2.95,10.72,2.95h16.35Z"/>
          <path class="cls-1" d="m1188.5,745.23c-5.09-4.73-7.64-10.59-7.64-17.55s2.55-13.13,7.64-17.96c5.09-4.82,11.66-7.24,19.7-7.24s14.34,2.41,19.43,7.24c5.09,4.82,7.64,10.81,7.64,17.96s-2.55,12.82-7.64,17.55c-5.09,4.74-11.57,7.1-19.43,7.1s-14.61-2.37-19.7-7.1Z"/>
        </g>
      </g>
    </g>
  </g>
</svg>