<?xml version="1.0" encoding="UTF-8"?>
<svg id="Layer_2" data-name="Layer 2" xmlns="http://www.w3.org/2000/svg" viewBox="0 0 84.03 83.69">
  <defs>
    <style>
      .cls-1 {
        stroke-width: 0px;
      }
    </style>
  </defs>
  <g id="Layer_1-2" data-name="Layer 1">
    <g>
      <path class="cls-1" d="m42.49,83.69c-8.32-.6-16.2-.07-23.91-1.52-10.04-1.88-16.76-9.45-17.64-19.55-1.16-13.27-1.27-26.56-.1-39.82C2.02,9.4,9.58,1.39,22.98.7,36.25.02,49.6-.52,62.88.86c11.43,1.18,18.95,8.91,20.11,20.26,1.44,14.09,1.37,28.19-.11,42.28-1.09,10.38-9.2,18.4-19.72,19.24-7.05.56-14.12.73-20.67,1.05Zm33.9-43.15c.15-4.63-.27-10.69-.61-16.73-.55-9.89-5.3-14.85-15.17-15.67-12.79-1.05-25.59-1.12-38.37.14-8.4.83-12.78,5-13.79,13.4-1.56,12.99-1.38,26.04-.24,39.03.86,9.81,6.4,14.5,16.31,14.92,2.74.12,5.49.19,8.23.29,9.98.36,19.97.37,29.9-.74,7.32-.82,11.91-5.54,12.81-12.82.84-6.76.91-13.58.93-21.82Z"/>
      <path class="cls-1" d="m63.4,41.8c0,11.87-9.47,21.3-21.44,21.35-11.93.04-21.44-9.43-21.42-21.35.02-11.86,9.58-21.4,21.44-21.4,11.84,0,21.41,9.56,21.42,21.4Zm-21.32,13.91c7.7-.07,13.84-6.37,13.75-14.1-.09-7.7-6.19-13.7-13.88-13.67-7.69.03-14.08,6.4-13.98,13.93.1,7.63,6.51,13.91,14.12,13.84Z"/>
      <path class="cls-1" d="m64.37,14.82c2.62.02,4.74,2.12,4.75,4.7.01,2.69-2.21,4.92-4.87,4.89-2.75-.03-4.85-2.15-4.86-4.89,0-2.72,2.11-4.73,4.97-4.7Z"/>
    </g>
  </g>
</svg>