<?xml version="1.0" encoding="UTF-8"?>
<svg id="Layer_2" data-name="Layer 2" xmlns="http://www.w3.org/2000/svg" viewBox="0 0 83.57 82.88">
  <defs>
    <style>
      .cls-1 {
        stroke-width: 0px;
      }
    </style>
  </defs>
  <g id="Layer_1-2" data-name="Layer 1">
    <g>
      <path class="cls-1" d="m46.16,34.03c3.65-4.22,7.43-6.92,12.3-7.79,4.95-.89,9.82-.45,14.45,1.41,5.25,2.1,7.65,6.63,9.09,11.76,1.15,4.1,1.52,8.31,1.52,12.56.01,9.3-.06,18.6.05,27.89.02,2.26-.63,3.11-2.98,3.01-3.98-.17-7.98-.12-11.97-.02-2,.05-2.61-.77-2.59-2.66.06-8.72.02-17.43.03-26.15,0-2.42-.21-4.81-.91-7.13-1.17-3.85-3.29-5.47-7.46-5.77-4.35-.31-7.55,1.32-9.13,4.66-1.26,2.68-1.73,5.52-1.73,8.46,0,8.38.01,16.76,0,25.14,0,3.23-.2,3.41-3.34,3.42-3.74,0-7.49-.12-11.23.05-2.25.1-2.96-.85-2.91-2.89.09-3.82.17-7.63.16-11.45-.03-12.45-.09-24.9-.16-37.35-.02-3.71.09-3.85,3.9-3.85,3.41,0,6.82.09,10.23-.03,2.06-.08,2.93.63,2.7,2.71-.11,1.06-.02,2.14-.02,4.03Z"/>
      <path class="cls-1" d="m18.6,55.15c0,8.14,0,16.27,0,24.41,0,3.21-.04,3.26-3.14,3.26-3.91,0-7.82-.09-11.73.04-2.02.06-2.58-.75-2.57-2.63.04-16.77.04-33.54,0-50.31,0-1.94.75-2.65,2.66-2.61,3.99.08,7.99.13,11.98-.02,2.27-.08,2.85.88,2.83,2.95-.07,8.3-.03,16.6-.03,24.91Z"/>
      <path class="cls-1" d="m0,9.37C.15,3.82,4.59-.18,10.4,0c5.56.18,9.71,4.5,9.59,9.99-.11,5.19-4.98,9.87-10.08,9.68C4.24,19.47-.15,14.91,0,9.37Z"/>
    </g>
  </g>
</svg>