<?xml version="1.0" encoding="UTF-8"?>
<svg id="Layer_2" data-name="Layer 2" xmlns="http://www.w3.org/2000/svg" viewBox="0 0 300 120.33">
  <defs>
    <style>
      .cls-1 {
        fill: #fff;
        stroke-width: 0px;
      }
    </style>
  </defs>
  <g id="Layer_1-2" data-name="Layer 1">
    <g>
      <path class="cls-1" d="m22.34,106.78c1.43.94,3.43,1.65,5.66,1.65,3.48.04,6.2-2.18,6.2-5.66,0-2.27-1.2-3.97-4.01-5.75-3.34-2.14-5.26-4.5-5.26-7.62,0-5.17,4.24-8.69,9.63-8.69,2.59,0,4.55.76,5.48,1.38l-1.2,2.94c-.94-.53-2.54-1.25-4.64-1.25-3.48,0-5.62,2.41-5.62,4.99,0,2.36,1.38,3.83,4.19,5.62,3.21,1.96,5.13,4.41,5.13,7.85,0,5.3-3.88,9.32-10.3,9.32-2.76,0-5.39-.89-6.46-1.83l1.2-2.94Z"/>
      <path class="cls-1" d="m39.14,119.89l4.28-22.65c.53-2.76.94-5.57,1.25-7.67h3.21l-.58,3.92h.09c1.78-2.72,4.41-4.37,7.09-4.37,4.23,0,5.84,3.57,5.84,7.31,0,7.31-4.86,15.16-11.81,15.16-1.87,0-3.25-.45-4.01-.89h-.09l-1.74,9.18h-3.52Zm5.84-12.17c.85.67,2.05,1.07,3.52,1.07,4.81,0,8.16-7.13,8.16-12.04,0-2.18-.85-4.59-3.52-4.59s-5.88,3.34-6.91,8.78l-1.25,6.78Z"/>
      <path class="cls-1" d="m81.71,97.51c0,6.33-4.15,14.09-11.19,14.09-4.99,0-7.44-3.83-7.44-8.38,0-6.73,4.37-14.09,11.19-14.09,5.39,0,7.44,4.32,7.44,8.38Zm-15.02,5.48c0,3.21,1.43,5.75,4.32,5.75,4.24,0,7.04-6.69,7.04-11.28,0-2.45-.94-5.48-4.23-5.48-4.32,0-7.13,6.29-7.13,11.01Z"/>
      <path class="cls-1" d="m83.9,111.15l2.67-14.09c.53-2.81.85-5.57,1.07-7.49h3.12c-.18,1.43-.31,2.81-.53,4.5h.13c1.38-2.85,3.57-4.95,6.24-4.95.31,0,.62.04.89.09l-.67,3.57c-.22-.04-.49-.09-.85-.09-3.08,0-5.8,3.92-6.64,8.43l-1.87,10.03h-3.57Z"/>
      <path class="cls-1" d="m107.74,83.82l-1.11,5.75h4.81l-.53,2.76h-4.86l-2.05,11.06c-.22,1.2-.4,2.27-.4,3.21,0,1.25.53,1.96,1.87,1.96.62,0,1.16-.04,1.6-.13l-.18,2.76c-.71.27-1.74.36-2.72.36-2.94,0-4.24-1.74-4.24-3.92,0-1.16.13-2.27.45-3.88l2.18-11.41h-2.94l.53-2.76h2.94l.94-4.81,3.7-.94Z"/>
      <path class="cls-1" d="m111.44,107.54c.89.54,2.54,1.25,4.23,1.25,2.41-.04,3.92-1.6,3.92-3.57,0-1.78-.8-2.85-2.76-4.06-2.18-1.34-3.57-3.25-3.57-5.44,0-3.7,3.08-6.6,7.49-6.6,1.78,0,3.39.49,4.15,1.03l-.98,2.67c-.71-.4-1.96-.89-3.34-.89-2.27,0-3.74,1.43-3.74,3.3,0,1.6,1.03,2.54,2.67,3.61,2.18,1.38,3.7,3.3,3.7,5.66,0,4.55-3.48,7.04-7.85,7.04-2.14,0-4.1-.71-4.95-1.38l1.03-2.63Z"/>
      <path class="cls-1" d="m126.65,111.15l2.81-14.93c.53-2.63.8-4.86,1.03-6.64h3.16l-.54,3.88h.09c1.96-2.9,4.41-4.32,7-4.32,2.99,0,4.46,2.01,4.59,4.5,1.87-2.94,4.37-4.46,7.27-4.5,2.5,0,4.73,1.74,4.73,5.26,0,1.03-.13,2.45-.4,3.74l-2.45,13.02h-3.48l2.41-12.84c.18-.89.36-1.96.36-2.94,0-2.01-.8-3.25-2.81-3.25-2.5,0-5.39,3.03-6.29,7.71l-2.1,11.32h-3.48l2.45-12.97c.22-1.03.31-1.92.31-2.85,0-1.65-.49-3.21-2.76-3.21-2.41,0-5.53,3.43-6.33,7.85l-2.1,11.19h-3.48Z"/>
      <path class="cls-1" d="m172.78,111.15c0-1.29.22-3.08.45-5.13h-.09c-2.27,4.24-4.95,5.57-7.53,5.57-3.43,0-5.57-2.76-5.57-6.82,0-7.22,4.95-15.65,14-15.65,1.92,0,3.92.36,5.26.8l-2.27,11.55c-.71,3.52-1.03,7.27-.94,9.67h-3.3Zm2.5-18.9c-.49-.18-1.16-.27-2.18-.27-5.35,0-9.36,6.42-9.41,12.04,0,2.54.71,4.64,3.17,4.64,2.85,0,6.06-4.1,7.09-9.41l1.34-7Z"/>
      <path class="cls-1" d="m181.48,107.54c.89.54,2.54,1.25,4.24,1.25,2.41-.04,3.92-1.6,3.92-3.57,0-1.78-.8-2.85-2.76-4.06-2.18-1.34-3.57-3.25-3.57-5.44,0-3.7,3.08-6.6,7.49-6.6,1.78,0,3.39.49,4.15,1.03l-.98,2.67c-.71-.4-1.96-.89-3.34-.89-2.27,0-3.74,1.43-3.74,3.3,0,1.6,1.03,2.54,2.67,3.61,2.18,1.38,3.7,3.3,3.7,5.66,0,4.55-3.48,7.04-7.85,7.04-2.14,0-4.1-.71-4.95-1.38l1.03-2.63Z"/>
      <path class="cls-1" d="m196.86,107.54c.89.54,2.54,1.25,4.23,1.25,2.41-.04,3.92-1.6,3.92-3.57,0-1.78-.8-2.85-2.76-4.06-2.18-1.34-3.57-3.25-3.57-5.44,0-3.7,3.08-6.6,7.49-6.6,1.78,0,3.39.49,4.15,1.03l-.98,2.67c-.71-.4-1.96-.89-3.34-.89-2.27,0-3.74,1.43-3.74,3.3,0,1.6,1.03,2.54,2.67,3.61,2.18,1.38,3.7,3.3,3.7,5.66,0,4.55-3.48,7.04-7.85,7.04-2.14,0-4.1-.71-4.95-1.38l1.03-2.63Z"/>
      <path class="cls-1" d="m225.07,111.15c0-1.29.22-3.08.45-5.13h-.09c-2.27,4.24-4.95,5.57-7.53,5.57-3.43,0-5.57-2.76-5.57-6.82,0-7.22,4.95-15.65,14-15.65,1.92,0,3.92.36,5.26.8l-2.27,11.55c-.71,3.52-1.03,7.27-.94,9.67h-3.3Zm2.5-18.9c-.49-.18-1.16-.27-2.18-.27-5.35,0-9.36,6.42-9.41,12.04,0,2.54.71,4.64,3.17,4.64,2.85,0,6.06-4.1,7.09-9.41l1.34-7Z"/>
      <path class="cls-1" d="m233.68,116.19c1.2.71,3.12,1.25,5.08,1.25,3.48,0,5.88-2.01,7.04-7.27l.71-3.3h-.09c-1.87,3.08-4.23,4.32-6.78,4.32-3.79,0-5.84-3.21-5.84-7.09-.04-7.04,4.73-14.98,12.88-14.98,2.27,0,4.68.67,6.2,1.38l-3.34,18.05c-.85,4.59-2.05,7.62-4.06,9.45-1.96,1.74-4.59,2.32-7,2.32s-4.59-.54-5.8-1.38l.98-2.76Zm15.34-23.54c-.62-.31-1.69-.62-3.08-.62-5.08,0-8.43,6.2-8.47,11.28,0,2.45.71,5.04,3.57,5.04s5.75-4.06,6.46-7.8l1.52-7.89Z"/>
      <path class="cls-1" d="m269.34,109.95c-1.6.94-3.92,1.6-6.51,1.6-5.35,0-7.53-3.79-7.53-8.34,0-6.33,4.37-14.09,11.06-14.09,3.83,0,5.75,2.45,5.75,5.35,0,5.53-5.84,7.27-13.2,7.13-.13.85-.09,2.99.36,4.19.76,1.92,2.27,2.85,4.37,2.85,2.27,0,3.97-.71,5.22-1.38l.49,2.67Zm-3.52-17.96c-3.03,0-5.48,3.12-6.46,6.87,5.08.04,9.36-.85,9.36-4.24,0-1.69-1.16-2.63-2.9-2.63Z"/>
    </g>
  </g>
</svg>