<?xml version="1.0" encoding="UTF-8"?>
<svg id="Layer_2" data-name="Layer 2" xmlns="http://www.w3.org/2000/svg" viewBox="0 0 18.28 18.28">
  <defs>
    <style>
      .cls-1 {
        stroke-width: 0px;
      }
    </style>
  </defs>
  <g id="Layer_1-2" data-name="Layer 1">
    <path class="cls-1" d="m17.63,14.48l-5.34-5.34,5.34-5.34c.87-.87.87-2.28,0-3.14-.87-.87-2.27-.87-3.14,0l-5.34,5.34L3.79.65C2.93-.22,1.52-.22.65.65c-.87.87-.87,2.28,0,3.14l5.35,5.34L.65,14.48c-.43.43-.65,1-.65,1.57s.22,1.14.65,1.57c.87.87,2.28.87,3.14,0l5.34-5.34,5.34,5.34c.43.43,1,.65,1.57.65s1.14-.22,1.57-.65c.87-.87.87-2.28,0-3.14Z"/>
  </g>
</svg>