<?xml version="1.0" encoding="UTF-8"?>
<svg id="Layer_2" data-name="Layer 2" xmlns="http://www.w3.org/2000/svg" viewBox="0 0 32.85 18.66">
  <defs>
    <style>
      .cls-1 {
        stroke-width: 0px;
      }
    </style>
  </defs>
  <g id="Layer_1-2" data-name="Layer 1">
    <path class="cls-1" d="m32.2,14.85L18,.65s0,0,0,0h0c-.06-.06-.13-.1-.19-.15-.05-.04-.1-.09-.16-.13-.35-.23-.76-.35-1.16-.36-.02,0-.04,0-.06,0-.02,0-.04,0-.06,0-.41.01-.81.13-1.16.36-.06.04-.11.09-.16.13-.06.05-.13.1-.19.15h0s0,0,0,0L.65,14.85c-.87.87-.87,2.28,0,3.15.87.87,2.28.87,3.15,0l12.62-12.62,12.62,12.62c.87.87,2.28.87,3.15,0,.87-.87.87-2.28,0-3.15Z"/>
  </g>
</svg>