<?xml version="1.0" encoding="UTF-8"?>
<svg id="Layer_2" data-name="Layer 2" xmlns="http://www.w3.org/2000/svg" viewBox="0 0 32.85 18.66">
  <defs>
    <style>
      .cls-1 {
        stroke-width: 0px;
      }
    </style>
  </defs>
  <g id="Layer_1-2" data-name="Layer 1">
    <path class="cls-1" d="m32.2.65c-.87-.87-2.28-.87-3.15,0l-12.62,12.62L3.81.65c-.87-.87-2.28-.87-3.15,0-.87.87-.87,2.28,0,3.15l14.19,14.19s0,0,0,0h0c.32.32.71.51,1.11.6.01,0,.03,0,.04.01.1.02.19.02.29.03.05,0,.09.01.14.01.05,0,.09-.01.14-.01.1,0,.19,0,.29-.03.01,0,.03,0,.04-.01.41-.09.8-.28,1.11-.6,0,0,0,0,0,0h0s14.19-14.19,14.19-14.19c.87-.87.87-2.28,0-3.15Z"/>
  </g>
</svg>