<?xml version="1.0" encoding="UTF-8"?>
<svg id="Layer_2" data-name="Layer 2" xmlns="http://www.w3.org/2000/svg" viewBox="0 0 83.67 94.94">
  <defs>
    <style>
      .cls-1 {
        stroke-width: 0px;
      }
    </style>
  </defs>
  <g id="Layer_1-2" data-name="Layer 1">
    <path class="cls-1" d="m44.14,34.46c0-10.3,0-20.59,0-30.89,0-3.29.23-3.51,3.55-3.52,3.16,0,6.33.13,9.48-.04,2.5-.14,3.51.81,3.94,3.27,1.63,9.37,7.1,15.48,16.23,18.28.4.12.79.27,1.2.35,5.34.98,5.04.57,5.07,6.18.01,2.57-.09,5.15.06,7.72.14,2.41-.9,3-3.14,2.8-6.23-.56-12.05-2.26-17.42-5.51-2.4-1.45-2.52-1.33-2.52,1.41,0,10.21.04,20.43-.05,30.64-.14,15.11-11.64,27.92-26.44,29.6-15.46,1.75-29.6-7.96-33.23-22.84-4.01-16.39,6.43-33.29,22.72-36.66,2.76-.57,5.59-.76,8.43-.73,1.92.03,2.65.85,2.61,2.75-.09,3.73-.1,7.47,0,11.21.05,2.04-.53,2.78-2.74,2.55-7-.72-13.39,3.74-14.88,10.16-1.66,7.17,1.66,13.68,8.37,16.4,8.65,3.5,18.52-2.84,18.7-12.24.19-10.29.04-20.59.04-30.89.01,0,.03,0,.04,0Z"/>
  </g>
</svg>